<svg xmlns="http://www.w3.org/2000/svg" width="512" height="512" viewBox="0 0 512 512" fill="none">
  <defs>
    <linearGradient id="bg" x1="96" y1="64" x2="432" y2="448" gradientUnits="userSpaceOnUse">
      <stop offset="0" stop-color="#7C74FF" />
      <stop offset="0.52" stop-color="#635BFF" />
      <stop offset="1" stop-color="#06B6D4" />
    </linearGradient>
    <radialGradient id="glow" cx="0" cy="0" r="1" gradientUnits="userSpaceOnUse" gradientTransform="translate(380 118) rotate(131.347) scale(282.901)">
      <stop stop-color="#FFFFFF" stop-opacity="0.38" />
      <stop offset="1" stop-color="#FFFFFF" stop-opacity="0" />
    </radialGradient>
    <linearGradient id="bar" x1="270" y1="172" x2="356" y2="340" gradientUnits="userSpaceOnUse">
      <stop stop-color="#B7F3FF" />
      <stop offset="1" stop-color="#4DD9F5" />
    </linearGradient>
  </defs>

  <rect x="32" y="32" width="448" height="448" rx="116" fill="#0F1222" />
  <rect x="32" y="32" width="448" height="448" rx="116" fill="url(#bg)" />
  <rect x="32" y="32" width="448" height="448" rx="116" fill="url(#glow)" />
  <rect x="48" y="48" width="416" height="416" rx="100" stroke="rgba(255,255,255,0.14)" stroke-width="2" />

  <path
    d="M348 138C315.788 119.333 286.293 110 245.61 110C175.138 110 126 160.564 126 256C126 351.436 175.138 402 245.61 402C286.293 402 315.788 392.667 348 374"
    stroke="white"
    stroke-width="56"
    stroke-linecap="round"
    stroke-linejoin="round"
  />

  <rect x="274" y="168" width="26" height="176" rx="13" fill="url(#bar)" />
  <rect x="316" y="152" width="26" height="208" rx="13" fill="url(#bar)" />
  <rect x="358" y="188" width="26" height="136" rx="13" fill="url(#bar)" />

  <circle cx="374" cy="134" r="26" fill="#B7F3FF" fill-opacity="0.88" />
  <circle cx="374" cy="134" r="10" fill="#FFFFFF" />
</svg>
